# xmcd
#
# Track frame offsets:
#	150
#	14376
#	32337
#	46149
#	61219
#	73613
#	86779
#	99392
#	111822
#	123597
#	140793
#
# Disc length: 2026 seconds
#
# Revision: 1
# Processed by: cddbd v1.5.2PL0 Copyright (c) Steve Scherf et al.
# Submitted via: EZCDAudioConverter 4.0.4.1
#
DISCID=9207e80b
DTITLE=Niamh Lynn - An Old Fashioned Song
DYEAR=2016
DGENRE=Country
TTITLE0=Niamh Lynn - Gotta Lot of Rythm In My Soul
TTITLE1=Niamh Lynn - I'm Missing You
TTITLE2=Niamh Lynn - Sing Me An Old Fashioned Song
TTITLE3=Niamh Lynn - Blue Bayou
TTITLE4=Niamh Lynn - Always
TTITLE5=Niamh Lynn - Once A Day
TTITLE6=Niamh Lynn - Blue
TTITLE7=Niamh Lynn - A Love I Think Will Last
TTITLE8=Niamh lynn - He Called Me Baby
TTITLE9=Niamh Lynn - While I Was Makng Love To You
TTITLE10=Niamh Lynn - Ain't No Wheels On This Ship
EXTD=
EXTT0=
EXTT1=
EXTT2=
EXTT3=
EXTT4=
EXTT5=
EXTT6=
EXTT7=
EXTT8=
EXTT9=
EXTT10=
PLAYORDER=
